<svg width="1920" height="1080" viewBox="0 0 1920 1080" fill="none" xmlns="http://www.w3.org/2000/svg">
  <rect width="1920" height="1080" fill="#07111B"/>
  <rect width="1920" height="1080" fill="url(#paint0_radial)"/>
  <rect width="1920" height="1080" fill="url(#paint1_radial)"/>
  <rect width="1920" height="1080" fill="url(#paint2_linear)"/>
  <g opacity="0.12">
    <path d="M0 920L420 680L830 800L1300 470L1920 610V1080H0V920Z" fill="#0E2236"/>
    <path d="M0 980L320 790L660 860L1080 620L1420 700L1920 560V1080H0V980Z" fill="#112D48"/>
  </g>
  <g opacity="0.22">
    <circle cx="1480" cy="220" r="230" fill="url(#paint3_radial)"/>
    <circle cx="1450" cy="210" r="310" stroke="#39A4FF" stroke-opacity="0.22" stroke-width="2"/>
    <circle cx="1450" cy="210" r="370" stroke="#39A4FF" stroke-opacity="0.12" stroke-width="2"/>
  </g>
  <g opacity="0.86">
    <path d="M812 476C863 432 912 412 975 414C1023 416 1072 440 1110 470C1140 494 1168 525 1182 560C1190 581 1189 602 1181 620C1171 641 1154 657 1130 666C1114 672 1098 673 1078 671C1054 668 1026 657 1002 651C972 643 945 645 916 656C883 669 858 697 839 729C821 760 809 798 800 836C794 861 790 889 786 916L748 918C751 870 758 825 772 780C790 723 817 669 853 625C873 601 897 580 927 566C956 553 989 548 1022 550C1054 552 1088 562 1117 574C1139 583 1160 594 1182 599C1197 602 1210 602 1222 599C1232 596 1241 590 1246 580C1252 568 1252 552 1246 534C1238 511 1223 489 1205 469C1165 425 1105 390 1040 377C973 364 911 374 850 404L812 476Z" fill="#42A7FF"/>
    <path d="M891 446C902 393 925 349 958 314C995 275 1048 247 1101 236C1149 226 1198 232 1244 247C1268 254 1292 264 1315 275L1296 303C1274 294 1252 286 1229 280C1187 268 1142 264 1101 273C1055 283 1011 308 980 347C954 379 936 420 929 462L891 446Z" fill="#55B5FF"/>
    <path d="M1130 664C1161 687 1184 715 1197 750C1208 780 1212 812 1214 848L1177 849C1175 818 1171 789 1162 762C1152 731 1133 704 1105 683L1130 664Z" fill="#7BC8FF"/>
    <path d="M771 702C746 712 721 728 702 748C684 767 672 790 670 815C668 838 678 861 697 879C718 900 748 915 780 926L770 960C731 948 694 929 665 901C638 874 628 840 631 808C634 772 651 739 676 712C701 686 731 666 763 653L771 702Z" fill="#2E8FDF"/>
    <path d="M995 474C1025 461 1058 456 1090 460C1128 464 1165 480 1196 503L1172 530C1147 511 1118 498 1088 495C1061 492 1032 496 1005 507L995 474Z" fill="#B4E0FF"/>
    <path d="M749 920C858 819 955 780 1068 775C1153 771 1238 793 1323 846" stroke="#86D1FF" stroke-opacity="0.35" stroke-width="2"/>
  </g>
  <g opacity="0.3">
    <circle cx="260" cy="160" r="2" fill="#BEE5FF"/>
    <circle cx="430" cy="230" r="1.5" fill="#BEE5FF"/>
    <circle cx="620" cy="130" r="1.5" fill="#BEE5FF"/>
    <circle cx="810" cy="190" r="2" fill="#BEE5FF"/>
    <circle cx="980" cy="120" r="1.5" fill="#BEE5FF"/>
    <circle cx="1180" cy="170" r="2" fill="#BEE5FF"/>
    <circle cx="1710" cy="120" r="2" fill="#BEE5FF"/>
    <circle cx="1600" cy="290" r="1.5" fill="#BEE5FF"/>
  </g>
  <defs>
    <radialGradient id="paint0_radial" cx="0" cy="0" r="1" gradientUnits="userSpaceOnUse" gradientTransform="translate(362 195) rotate(30.4791) scale(578.245 486.875)">
      <stop stop-color="#1D5E97" stop-opacity="0.46"/>
      <stop offset="1" stop-color="#07111B" stop-opacity="0"/>
    </radialGradient>
    <radialGradient id="paint1_radial" cx="0" cy="0" r="1" gradientUnits="userSpaceOnUse" gradientTransform="translate(1509 145) rotate(118.958) scale(524.207 673.82)">
      <stop stop-color="#1D4C7C" stop-opacity="0.4"/>
      <stop offset="1" stop-color="#07111B" stop-opacity="0"/>
    </radialGradient>
    <linearGradient id="paint2_linear" x1="960" y1="0" x2="960" y2="1080" gradientUnits="userSpaceOnUse">
      <stop stop-color="#07111B" stop-opacity="0"/>
      <stop offset="1" stop-color="#04090F" stop-opacity="0.92"/>
    </linearGradient>
    <radialGradient id="paint3_radial" cx="0" cy="0" r="1" gradientUnits="userSpaceOnUse" gradientTransform="translate(1480 220) rotate(90) scale(230)">
      <stop stop-color="#46ACFF" stop-opacity="0.65"/>
      <stop offset="1" stop-color="#46ACFF" stop-opacity="0"/>
    </radialGradient>
  </defs>
</svg>
